<svg width="29" height="28" viewBox="0 0 29 28" fill="none" xmlns="http://www.w3.org/2000/svg">
<path fill-rule="evenodd" clip-rule="evenodd" d="M23.5024 13.9998C23.5024 18.9715 19.472 23.002 14.5002 23.002C9.52846 23.002 5.49805 18.9715 5.49805 13.9998C5.49805 9.02799 9.52846 4.99757 14.5002 4.99757C19.472 4.99757 23.5024 9.02799 23.5024 13.9998ZM25.0024 13.9998C25.0024 19.8 20.3004 24.502 14.5002 24.502C8.70004 24.502 3.99805 19.8 3.99805 13.9998C3.99805 8.19956 8.70004 3.49757 14.5002 3.49757C20.3004 3.49757 25.0024 8.19956 25.0024 13.9998ZM19.2048 10.4175C19.5026 10.1295 19.5105 9.65474 19.2225 9.357C18.9345 9.05927 18.4597 9.05136 18.162 9.33933L9.65176 17.5705C9.35402 17.8585 9.34611 18.3333 9.63408 18.6311C9.92205 18.9288 10.3969 18.9367 10.6946 18.6487L19.2048 10.4175Z" fill="currentColor"/>
</svg>
