<svg width="29" height="28" viewBox="0 0 29 28" fill="none" xmlns="http://www.w3.org/2000/svg">
<path d="M15.4138 6.6259H13.5777C12.9585 6.6259 12.4882 6.06889 12.5919 5.45843L13.1142 2.38332C13.1959 1.90254 13.6124 1.55078 14.1001 1.55078H14.8683C15.3532 1.55078 15.7682 1.89867 15.8529 2.37612L16.3984 5.45124C16.5071 6.06384 16.0359 6.6259 15.4138 6.6259Z" stroke="white" stroke-width="1.5" fill="currentColor"/>
<path d="M10.6699 10.0299V7.625C10.6699 7.07272 11.1176 6.625 11.6699 6.625H17.331C17.8832 6.625 18.331 7.07272 18.331 7.625V10.0299C18.331 10.5821 17.8832 11.0299 17.331 11.0299H11.6699C11.1176 11.0299 10.6699 10.5821 10.6699 10.0299Z" stroke="white" stroke-width="1.5" fill="currentColor"/>
<path d="M8.46289 25.4482V14.7644C8.46289 14.5186 8.55339 14.2815 8.7171 14.0982L11.1585 11.3651C11.3482 11.1527 11.6195 11.0312 11.9043 11.0312H17.0987C17.3837 11.0312 17.6552 11.1529 17.8449 11.3656L20.2825 14.0983C20.446 14.2815 20.5363 14.5184 20.5363 14.764V25.4482C20.5363 26.0005 20.0886 26.4482 19.5363 26.4482H9.46289C8.91061 26.4482 8.46289 26.0005 8.46289 25.4482Z" stroke="white" stroke-width="1.5" fill="currentColor"/>
<path d="M13.7676 16.666H20.0365C20.3126 16.666 20.5365 16.8899 20.5365 17.166V21.7545C20.5365 22.0306 20.3126 22.2545 20.0365 22.2545H13.7676C13.4914 22.2545 13.2676 22.0306 13.2676 21.7545V17.166C13.2676 16.8899 13.4914 16.666 13.7676 16.666Z" stroke="white" stroke-width="1.5"  fill="currentColor"/>
</svg>
