<svg width="29" height="28" viewBox="0 0 29 28" fill="none" xmlns="http://www.w3.org/2000/svg">
<mask id="path-1-inside-1_1579_43009" fill="white">
<rect x="7.11133" y="2.36523" width="13.8781" height="6.16658" rx="1"/>
</mask>
<rect x="7.11133" y="2.36523" width="13.8781" height="6.16658" rx="1" stroke="white" stroke-width="3" mask="url(#path-1-inside-1_1579_43009)"/>
<path d="M9.01006 8.36523V10.0235C9.01006 10.3173 8.88083 10.5963 8.65671 10.7863L6.40511 12.6951C6.18098 12.8851 6.05176 13.164 6.05176 13.4579V24.0997C6.05176 24.652 6.49947 25.0997 7.05176 25.0997H14.1581" stroke="white" stroke-width="1.5"/>
<path d="M19.1364 8.36523V10.0235C19.1364 10.3173 19.2657 10.5963 19.4898 10.7863L21.7414 12.6951C21.9655 12.8851 22.0947 13.164 22.0947 13.4579V24.0997C22.0947 24.652 21.647 25.0997 21.0947 25.0997H14.1082" stroke="white" stroke-width="1.5"/>
<path d="M22.0561 15.3555H13.998C13.7219 15.3555 13.498 15.5793 13.498 15.8555V21.2793C13.498 21.5554 13.7219 21.7793 13.998 21.7793H22.0561" stroke="white" stroke-width="1.5"/>
</svg>
