<svg width="29" height="28" viewBox="0 0 29 28" fill="none" xmlns="http://www.w3.org/2000/svg">
<path d="M5.36719 14.4551L13.8095 22.8974" stroke="white" stroke-width="1.5"/>
<path d="M11.2958 25.2491L3.40627 17.3596C3.19991 17.1532 3.21341 16.8147 3.43554 16.6254L16.232 5.72187C16.367 5.60682 16.5529 5.57192 16.7205 5.63016L18.8687 6.37688C18.94 6.40166 19.0047 6.44225 19.0581 6.49561L22.1595 9.59698C22.2128 9.65034 22.2534 9.71509 22.2782 9.78637L23.0249 11.9346C23.0832 12.1022 23.0483 12.288 22.9332 12.4231L12.0299 25.2198C11.8407 25.4419 11.5022 25.4554 11.2958 25.2491Z" stroke="white" stroke-width="1.5"/>
<path d="M25.0641 5.37659L23.3565 3.66898C23.1748 3.48728 22.8849 3.47289 22.6861 3.63569L19.1186 6.55714L22.2403 9.67878L25.1035 6.0393C25.2601 5.84029 25.2431 5.55564 25.0641 5.37659Z" stroke="white" stroke-width="1.5"/>
</svg>
