<svg width="29" height="28" viewBox="0 0 29 28" fill="none" xmlns="http://www.w3.org/2000/svg">
<path fill-rule="evenodd" clip-rule="evenodd" d="M14.4996 3.5C14.7988 3.5 15.0772 3.65284 15.2378 3.90523L20.9714 12.9152C21.2657 13.3777 21.5087 13.8709 21.696 14.3861L20.8737 14.6851L21.696 14.3861C23.4837 19.3022 19.843 24.5 14.612 24.5H14.3872C9.15617 24.5 5.51547 19.3022 7.30314 14.3861C7.49048 13.8709 7.73346 13.3777 8.02777 12.9152L13.7614 3.90523C13.922 3.65284 14.2004 3.5 14.4996 3.5ZM14.4996 6.0048L9.50418 13.8547C9.2782 14.2098 9.09163 14.5886 8.94778 14.9841C7.57514 18.7589 10.3706 22.75 14.3872 22.75H14.612C18.6286 22.75 21.424 18.7589 20.0514 14.9841C19.9076 14.5886 19.721 14.2098 19.495 13.8547L14.4996 6.0048Z" fill="white"/>
</svg>
