<svg width="29" height="28" viewBox="0 0 29 28" fill="none" xmlns="http://www.w3.org/2000/svg">
<path fill-rule="evenodd" clip-rule="evenodd" d="M4 9.625C4 8.17525 5.17525 7 6.625 7H22.375C23.8247 7 25 8.17525 25 9.625V18.375C25 19.8247 23.8247 21 22.375 21H6.625C5.17525 21 4 19.8247 4 18.375V9.625ZM6.625 8.75C6.14175 8.75 5.75 9.14175 5.75 9.625V18.375C5.75 18.8582 6.14175 19.25 6.625 19.25H22.375C22.8582 19.25 23.25 18.8582 23.25 18.375V9.625C23.25 9.14175 22.8582 8.75 22.375 8.75H6.625ZM8.375 11.375C8.375 10.8918 8.76675 10.5 9.25 10.5H9.25875C9.742 10.5 10.1337 10.8918 10.1337 11.375C10.1337 11.8582 9.742 12.25 9.25875 12.25H9.25C8.76675 12.25 8.375 11.8582 8.375 11.375ZM11.875 11.375C11.875 10.8918 12.2668 10.5 12.75 10.5H12.7587C13.242 10.5 13.6337 10.8918 13.6337 11.375C13.6337 11.8582 13.242 12.25 12.7587 12.25H12.75C12.2668 12.25 11.875 11.8582 11.875 11.375ZM15.375 11.375C15.375 10.8918 15.7668 10.5 16.25 10.5H16.2587C16.742 10.5 17.1337 10.8918 17.1337 11.375C17.1337 11.8582 16.742 12.25 16.2587 12.25H16.25C15.7668 12.25 15.375 11.8582 15.375 11.375ZM18.875 11.375C18.875 10.8918 19.2668 10.5 19.75 10.5H19.7587C20.242 10.5 20.6338 10.8918 20.6338 11.375C20.6338 11.8582 20.242 12.25 19.7587 12.25H19.75C19.2668 12.25 18.875 11.8582 18.875 11.375ZM8.375 16.625C8.375 16.1418 8.76675 15.75 9.25 15.75H9.25875C9.742 15.75 10.1337 16.1418 10.1337 16.625C10.1337 17.1082 9.742 17.5 9.25875 17.5H9.25C8.76675 17.5 8.375 17.1082 8.375 16.625ZM11.875 16.625C11.875 16.1418 12.2668 15.75 12.75 15.75H12.7587C13.242 15.75 13.6337 16.1418 13.6337 16.625C13.6337 17.1082 13.242 17.5 12.7587 17.5H12.75C12.2668 17.5 11.875 17.1082 11.875 16.625ZM15.375 16.625C15.375 16.1418 15.7668 15.75 16.25 15.75H16.2587C16.742 15.75 17.1337 16.1418 17.1337 16.625C17.1337 17.1082 16.742 17.5 16.2587 17.5H16.25C15.7668 17.5 15.375 17.1082 15.375 16.625ZM18.875 16.625C18.875 16.1418 19.2668 15.75 19.75 15.75H19.7587C20.242 15.75 20.6338 16.1418 20.6338 16.625C20.6338 17.1082 20.242 17.5 19.7587 17.5H19.75C19.2668 17.5 18.875 17.1082 18.875 16.625Z" fill="white"/>
</svg>
