<svg width="29" height="28" viewBox="0 0 29 28" fill="none" xmlns="http://www.w3.org/2000/svg">
<path d="M22.2194 6.2817C23.3267 7.38907 23.669 9.23306 23.1058 11.4857C22.5469 13.7215 21.118 16.2219 18.9195 18.4204C16.7211 20.6188 14.2206 22.0477 11.9849 22.6067C9.73222 23.1698 7.88822 22.8276 6.78086 21.7202C5.67349 20.6128 5.33122 18.7688 5.89438 16.5162C6.45332 14.2804 7.88222 11.78 10.0807 9.58153C12.2792 7.38307 14.7796 5.95417 17.0153 5.39522C19.268 4.83206 21.112 5.17433 22.2194 6.2817Z" stroke="white" stroke-width="1.5"/>
<path d="M15.7236 15.0098L14.7822 15.9375C14.3278 16.3853 13.8316 16.7886 13.3003 17.1418L12.2416 17.8459" stroke="white" stroke-width="1.5" stroke-linecap="round"/>
</svg>
