<svg width="21" height="20" viewBox="0 0 21 20" fill="none" xmlns="http://www.w3.org/2000/svg">
<path d="M18.6168 16.5633C17.4506 14.5543 15.5839 13.0465 13.3746 12.3289C14.4336 11.6992 15.2565 10.7392 15.717 9.59644C16.1775 8.45367 16.25 7.19132 15.9235 6.00333C15.597 4.81533 14.8894 3.7674 13.9095 3.02053C12.9297 2.27365 11.7317 1.86914 10.4996 1.86914C9.26759 1.86914 8.06961 2.27365 7.08975 3.02053C6.10988 3.7674 5.40234 4.81533 5.0758 6.00333C4.74927 7.19132 4.82181 8.45367 5.28228 9.59644C5.74275 10.7392 6.56568 11.6992 7.62465 12.3289C5.41535 13.0465 3.54866 14.5543 2.38246 16.5633C2.3252 16.6575 2.29492 16.7656 2.29492 16.8758C2.29492 16.986 2.3252 17.0941 2.38246 17.1883C2.43588 17.2841 2.51415 17.3636 2.60903 17.4186C2.70391 17.4736 2.81186 17.502 2.92152 17.5008H18.0778C18.1874 17.502 18.2954 17.4736 18.3903 17.4186C18.4851 17.3636 18.5634 17.2841 18.6168 17.1883C18.6741 17.0941 18.7044 16.986 18.7044 16.8758C18.7044 16.7656 18.6741 16.6575 18.6168 16.5633Z" fill="#00B1A7"/>
</svg>
