<svg width="25" height="24" viewBox="0 0 25 24" fill="none" xmlns="http://www.w3.org/2000/svg">
<path d="M5.76904 9.7501C5.76779 8.86096 5.94246 7.98035 6.283 7.15901C6.62354 6.33766 7.12321 5.5918 7.75323 4.96438C8.38326 4.33697 9.13119 3.84041 9.95395 3.50329C10.7767 3.16617 11.658 2.99516 12.5472 3.0001C16.2597 3.02823 19.2315 6.1126 19.2315 9.83448V10.5001C19.2315 13.8564 19.9347 15.8064 20.5534 16.8751C20.6191 16.9889 20.6538 17.118 20.6539 17.2494C20.654 17.3809 20.6196 17.51 20.5541 17.624C20.4886 17.7379 20.3943 17.8326 20.2806 17.8986C20.167 17.9647 20.038 17.9996 19.9065 18.0001H5.09404C4.96261 17.9996 4.83361 17.9647 4.71996 17.8986C4.60632 17.8326 4.51201 17.7379 4.4465 17.624C4.38099 17.51 4.34656 17.3809 4.34668 17.2494C4.3468 17.118 4.38145 16.9889 4.44716 16.8751C5.06591 15.8064 5.76904 13.8564 5.76904 10.5001V9.7501Z" stroke="#111418" stroke-width="1.5" stroke-linecap="round" stroke-linejoin="round"/>
<path d="M9.5 18V18.75C9.5 19.5456 9.81607 20.3087 10.3787 20.8713C10.9413 21.4339 11.7044 21.75 12.5 21.75C13.2956 21.75 14.0587 21.4339 14.6213 20.8713C15.1839 20.3087 15.5 19.5456 15.5 18.75V18" stroke="#111418" stroke-width="1.5" stroke-linecap="round" stroke-linejoin="round"/>
</svg>
