<svg width="61" height="60" viewBox="0 0 61 60" fill="none" xmlns="http://www.w3.org/2000/svg">
<path fill-rule="evenodd" clip-rule="evenodd" d="M54.5 30C54.5 43.2548 43.7548 54 30.5 54C17.2452 54 6.5 43.2548 6.5 30C6.5 16.7452 17.2452 6 30.5 6C43.7548 6 54.5 16.7452 54.5 30ZM28.0645 21.0625C28.0292 19.934 28.9344 19 30.0635 19H30.9365C32.0656 19 32.9708 19.934 32.9355 21.0625L32.5605 33.0625C32.5268 34.1422 31.6418 35 30.5615 35H30.4385C29.3582 35 28.4732 34.1422 28.4395 33.0625L28.0645 21.0625ZM30.25 38.0156C29.1454 38.0156 28.25 38.9111 28.25 40.0156V40.5156C28.25 41.6202 29.1454 42.5156 30.25 42.5156H30.75C31.8546 42.5156 32.75 41.6202 32.75 40.5156V40.0156C32.75 38.9111 31.8546 38.0156 30.75 38.0156H30.25Z" fill="#F9B224"/>
<circle opacity="0.26" cx="30.5" cy="30" r="29.5" stroke="#F9B224"/>
</svg>
