<svg width="25" height="25" viewBox="0 0 25 25" fill="none" xmlns="http://www.w3.org/2000/svg">
<path d="M12.5 8V12.5" stroke="#00B1A7" stroke-width="1.5" stroke-linecap="round" stroke-linejoin="round"/>
<path d="M16.4 14.75L12.5 12.5" stroke="#00B1A7" stroke-width="1.5" stroke-linecap="round" stroke-linejoin="round"/>
<path d="M7.23126 9.84766H3.48126V6.09766" stroke="#00B1A7" stroke-width="1.5" stroke-linecap="round" stroke-linejoin="round"/>
<path d="M6.66876 18.3313C7.82228 19.4857 9.29228 20.2721 10.8928 20.591C12.4933 20.9099 14.1525 20.7469 15.6604 20.1227C17.1682 19.4984 18.4571 18.441 19.3639 17.0842C20.2707 15.7273 20.7548 14.132 20.7548 12.5C20.7548 10.868 20.2707 9.2727 19.3639 7.91585C18.4571 6.559 17.1682 5.50158 15.6604 4.87735C14.1525 4.25313 12.4933 4.09014 10.8928 4.40902C9.29228 4.72789 7.82228 5.5143 6.66876 6.66875L3.48126 9.84688" stroke="#00B1A7" stroke-width="1.5" stroke-linecap="round" stroke-linejoin="round"/>
</svg>
