<svg width="24" height="25" viewBox="0 0 24 25" fill="none" xmlns="http://www.w3.org/2000/svg">
<path d="M12 17C14.4853 17 16.5 14.9853 16.5 12.5C16.5 10.0147 14.4853 8 12 8C9.51472 8 7.5 10.0147 7.5 12.5C7.5 14.9853 9.51472 17 12 17Z" stroke="#111418" stroke-width="1.5" stroke-linecap="round" stroke-linejoin="round"/>
<path d="M18.5063 8.06523C18.732 8.38836 18.9296 8.73024 19.0969 9.08711L21.525 10.4371C21.8282 11.7951 21.8314 13.2028 21.5344 14.5621L19.0969 15.9121C18.9296 16.269 18.732 16.6109 18.5063 16.934L18.5532 19.7184C17.5241 20.6561 16.3062 21.3625 14.9813 21.7902L12.5907 20.3559C12.1974 20.384 11.8026 20.384 11.4094 20.3559L9.02815 21.7809C7.69907 21.361 6.47711 20.6572 5.4469 19.7184L5.49378 16.9434C5.26997 16.6158 5.07247 16.2709 4.90315 15.9121L2.47503 14.5621C2.17184 13.2042 2.16864 11.7964 2.46565 10.4371L4.90315 9.08711C5.07048 8.73024 5.26808 8.38836 5.49378 8.06523L5.4469 5.28086C6.47595 4.34314 7.69388 3.63667 9.01878 3.20898L11.4094 4.64336C11.8026 4.61523 12.1974 4.61523 12.5907 4.64336L14.9719 3.21836C16.301 3.63826 17.5229 4.342 18.5532 5.28086L18.5063 8.06523Z" stroke="#111418" stroke-width="1.5" stroke-linecap="round" stroke-linejoin="round"/>
</svg>
