<svg width="56" height="57" viewBox="0 0 56 57" fill="none" xmlns="http://www.w3.org/2000/svg">
<g clip-path="url(#clip0_2272_12443)">
<rect y="0.5" width="56" height="56" rx="28" fill="#00B1A7"/>
<path d="M19.0625 27.75H36.9375C37.1364 27.75 37.3272 27.829 37.4678 27.9697C37.6085 28.1103 37.6875 28.3011 37.6875 28.5C37.6875 28.6989 37.6085 28.8897 37.4678 29.0303C37.3272 29.171 37.1364 29.25 36.9375 29.25H19.0625C18.8636 29.25 18.6728 29.171 18.5322 29.0303C18.3915 28.8897 18.3125 28.6989 18.3125 28.5C18.3125 28.3011 18.3915 28.1103 18.5322 27.9697C18.6728 27.829 18.8636 27.75 19.0625 27.75Z" fill="white" stroke="white" stroke-width="0.125"/>
<path d="M36.9375 22.75H19.0625C18.8636 22.75 18.6728 22.671 18.5322 22.5303C18.3915 22.3897 18.3125 22.1989 18.3125 22C18.3125 21.8011 18.3915 21.6103 18.5322 21.4697C18.6728 21.329 18.8636 21.25 19.0625 21.25H36.9375C37.1364 21.25 37.3272 21.329 37.4678 21.4697C37.6085 21.6103 37.6875 21.8011 37.6875 22C37.6875 22.1989 37.6085 22.3897 37.4678 22.5303C37.3272 22.671 37.1364 22.75 36.9375 22.75Z" fill="white" stroke="white" stroke-width="0.125"/>
<path d="M36.9375 34.1875H19.0625C18.847 34.1875 18.6403 34.2731 18.488 34.4255C18.3356 34.5778 18.25 34.7845 18.25 35C18.25 35.2155 18.3356 35.4222 18.488 35.5745C18.6403 35.7269 18.847 35.8125 19.0625 35.8125H36.9375C37.153 35.8125 37.3597 35.7269 37.512 35.5745C37.6644 35.4222 37.75 35.2155 37.75 35C37.75 34.7845 37.6644 34.5778 37.512 34.4255C37.3597 34.2731 37.153 34.1875 36.9375 34.1875Z" fill="white"/>
</g>
<defs>
<clipPath id="clip0_2272_12443">
<rect y="0.5" width="56" height="56" rx="28" fill="white"/>
</clipPath>
</defs>
</svg>
