<svg width="20" height="21" viewBox="0 0 20 21" fill="none" xmlns="http://www.w3.org/2000/svg">
<path d="M11.875 16.7498V12.9998C11.875 12.834 11.8092 12.6751 11.6919 12.5579C11.5747 12.4406 11.4158 12.3748 11.25 12.3748H8.75C8.58424 12.3748 8.42527 12.4406 8.30806 12.5579C8.19085 12.6751 8.125 12.834 8.125 12.9998V16.7498C8.125 16.9156 8.05915 17.0745 7.94194 17.1917C7.82473 17.309 7.66576 17.3748 7.5 17.3748H3.75C3.58424 17.3748 3.42527 17.309 3.30806 17.1917C3.19085 17.0745 3.125 16.9156 3.125 16.7498V9.52324C3.1264 9.43674 3.14509 9.3514 3.17998 9.27224C3.21486 9.19308 3.26523 9.1217 3.32812 9.0623L9.57812 3.38261C9.69334 3.27721 9.84384 3.21875 10 3.21875C10.1562 3.21875 10.3067 3.27721 10.4219 3.38261L16.6719 9.0623C16.7348 9.1217 16.7851 9.19308 16.82 9.27224C16.8549 9.3514 16.8736 9.43674 16.875 9.52324V16.7498C16.875 16.9156 16.8092 17.0745 16.6919 17.1917C16.5747 17.309 16.4158 17.3748 16.25 17.3748H12.5C12.3342 17.3748 12.1753 17.309 12.0581 17.1917C11.9408 17.0745 11.875 16.9156 11.875 16.7498Z" stroke="#111418" stroke-width="1.5" stroke-linecap="round" stroke-linejoin="round"/>
</svg>
