<svg width="20" height="20" viewBox="0 0 20 20" fill="none" xmlns="http://www.w3.org/2000/svg">
<path d="M17.0939 8.10116L10.8439 2.42148C10.6135 2.21066 10.3125 2.09375 10.0002 2.09375C9.68785 2.09375 9.38685 2.21066 9.15642 2.42148L2.90642 8.10116C2.77845 8.21824 2.67625 8.36065 2.60631 8.51936C2.53637 8.67807 2.50022 8.8496 2.50017 9.02304V16.2184C2.49509 16.5335 2.60634 16.8395 2.81267 17.0777C2.92977 17.2109 3.07402 17.3174 3.23573 17.3902C3.39743 17.463 3.57284 17.5003 3.75017 17.4996H7.50017C7.66593 17.4996 7.8249 17.4338 7.94211 17.3165C8.05932 17.1993 8.12517 17.0404 8.12517 16.8746V13.1246C8.12517 12.9588 8.19102 12.7999 8.30823 12.6827C8.42544 12.5655 8.58441 12.4996 8.75017 12.4996H11.2502C11.4159 12.4996 11.5749 12.5655 11.6921 12.6827C11.8093 12.7999 11.8752 12.9588 11.8752 13.1246V16.8746C11.8752 17.0404 11.941 17.1993 12.0582 17.3165C12.1754 17.4338 12.3344 17.4996 12.5002 17.4996H16.2502C16.4575 17.5014 16.6618 17.4503 16.8439 17.3512C17.042 17.2433 17.2075 17.0841 17.3229 16.8903C17.4384 16.6965 17.4996 16.4752 17.5002 16.2496V9.02304C17.5001 8.8496 17.464 8.67807 17.394 8.51936C17.3241 8.36065 17.2219 8.21824 17.0939 8.10116Z" fill="#00B1A7"/>
</svg>
