<svg width="32" height="33" viewBox="0 0 32 33" fill="none" xmlns="http://www.w3.org/2000/svg">
<path d="M2.68619 7.07382C4.30448 4.72411 6.65106 2.92086 9.39501 1.91839C9.72746 1.79086 9.77067 1.70797 9.50139 1.46885C8.52144 0.573409 7.23366 0.0528683 5.88102 0.00543086C4.69833 -0.046484 3.53051 0.274947 2.55653 0.920464C0.894288 2.00129 0.152926 3.53166 0 5.4765C0.0432184 5.70287 0.116357 6.00256 0.152926 6.30864C0.293921 7.21718 0.69304 8.07096 1.30652 8.77636C1.46942 8.98041 1.55919 8.96765 1.68884 8.73491C1.99469 8.17377 2.32714 7.60307 2.68619 7.07382Z" fill="currentColor"/>
<path d="M31.7058 4.27378C31.4496 3.50808 31.0174 2.80734 30.441 2.2233C29.8646 1.63927 29.1588 1.18686 28.3757 0.899483C27.5926 0.612105 26.7521 0.4971 25.9165 0.56296C25.0808 0.628821 24.2712 0.873864 23.5475 1.28C23.1008 1.56248 22.6754 1.87463 22.2742 2.21416C23.3447 2.76254 24.3487 3.19933 25.2662 3.76047C27.425 5.07712 29.1632 6.93935 30.2896 9.14226C30.5023 9.54399 30.5755 9.55674 30.8447 9.18052C31.9352 7.67885 32.3241 6.0624 31.7058 4.27378Z" fill="currentColor"/>
<path d="M28.4592 10.0911C27.3827 8.27965 25.8758 6.73728 24.0609 5.58926C22.2237 4.41281 20.1305 3.65447 17.9411 3.37211C15.7516 3.08976 13.5239 3.29085 11.4279 3.96005C9.2288 4.64742 7.24299 5.84947 5.64991 7.45758C4.20804 8.83383 3.12981 10.5205 2.50494 12.3771C2.13745 13.4361 1.86932 14.5244 1.70374 15.6291C1.45087 17.7705 1.73819 19.9388 2.54151 21.9515C3.13619 23.4531 4.00279 24.8422 5.10137 26.0547C5.36068 26.3417 5.62996 26.6191 5.92252 26.9347C4.77224 28.0315 3.67849 29.0836 2.56811 30.123C2.4714 30.1974 2.40054 30.2982 2.36492 30.412C2.3293 30.5259 2.3306 30.6475 2.36864 30.7606C2.45284 31 2.58833 31.2198 2.76639 31.4059C2.94445 31.5921 3.16115 31.7404 3.40255 31.8415C3.85801 32.0551 4.13394 31.9244 4.44977 31.6151C5.44711 30.6267 6.49433 29.6702 7.49168 28.6755C7.75099 28.4204 7.92053 28.4364 8.20312 28.6181C10.1561 29.8619 12.4011 30.6201 14.7357 30.8244C16.2576 30.9781 17.7958 30.8745 19.2803 30.5183C20.9283 30.153 22.4938 29.5049 23.9014 28.6054C23.9456 28.56 24.0002 28.525 24.0609 28.5033C24.1216 28.4815 24.1867 28.4736 24.2512 28.4801C24.3156 28.4866 24.3776 28.5073 24.4323 28.5407C24.487 28.574 24.5328 28.6191 24.5662 28.6723C25.6124 29.6883 26.6673 30.699 27.7312 31.7044C27.9192 31.8739 28.1617 31.9773 28.4189 31.9976C28.6762 32.0179 28.933 31.9538 29.1474 31.8159C29.3046 31.7257 29.4378 31.6016 29.5364 31.4534C29.6349 31.3052 29.6961 31.1371 29.7152 30.9623C29.7342 30.7875 29.7105 30.6109 29.646 30.4464C29.5815 30.2819 29.4779 30.134 29.3435 30.0146C28.3661 29.0772 27.3987 28.1335 26.4147 27.2057C26.1853 26.9921 26.1952 26.8614 26.4147 26.6318C27.0082 26.0122 27.5632 25.3596 28.0769 24.6774C29.2191 23.0485 29.9717 21.1977 30.281 19.2574C30.6362 17.1956 30.4952 15.0832 29.8688 13.0817C29.5183 12.0369 29.0455 11.0336 28.4592 10.0911ZM15.9724 27.024C13.244 27.0089 10.6318 25.9628 8.70242 24.1125C6.77308 22.2622 5.68224 19.757 5.66653 17.1404L16.029 17.0957L26.3914 17.1308C26.3853 18.4367 26.1109 19.7286 25.5839 20.9327C25.0568 22.1368 24.2875 23.2295 23.3199 24.1482C22.3523 25.067 21.2053 25.7939 19.9446 26.2874C18.6839 26.7808 17.3341 27.0311 15.9724 27.024Z" fill="currentColor"/>
</svg>
