<svg width="15" height="15" viewBox="0 0 15 15" fill="none" xmlns="http://www.w3.org/2000/svg">
<path d="M4.50391 7.77484C5.08273 8.97016 6.04929 9.93424 7.24609 10.51C7.33437 10.5518 7.43202 10.5699 7.52942 10.5625C7.62681 10.5551 7.72061 10.5225 7.80156 10.4678L9.55937 9.29359C9.63704 9.24091 9.72678 9.20877 9.82022 9.20017C9.91367 9.19156 10.0078 9.20677 10.0937 9.24437L13.3844 10.6577C13.4968 10.7045 13.5908 10.7869 13.6518 10.8924C13.7128 10.9978 13.7374 11.1204 13.7219 11.2412C13.6176 12.0553 13.2202 12.8034 12.6042 13.3457C11.9882 13.8879 11.1957 14.1872 10.375 14.1873C7.83887 14.1873 5.40661 13.1799 3.61329 11.3865C1.81997 9.59323 0.8125 7.16097 0.8125 4.62484C0.812685 3.80415 1.1119 3.01165 1.65416 2.39562C2.19642 1.7796 2.94456 1.38226 3.75859 1.27796C3.87942 1.26244 4.00199 1.28707 4.10745 1.34806C4.2129 1.40904 4.29538 1.503 4.34219 1.61546L5.75547 4.91312C5.79222 4.99774 5.8076 5.0901 5.80024 5.18206C5.79288 5.27402 5.76302 5.36276 5.71328 5.44046L4.53906 7.2264C4.48679 7.30718 4.4561 7.40002 4.44995 7.49604C4.44379 7.59206 4.46237 7.68805 4.50391 7.77484V7.77484Z" stroke="#111418" stroke-width="1.5" stroke-linecap="round" stroke-linejoin="round"/>
</svg>
