<svg width="20" height="20" viewBox="0 0 20 20" fill="none" xmlns="http://www.w3.org/2000/svg">
<path d="M18.25 9.25H10.75V1.75C10.75 1.55109 10.671 1.36032 10.5303 1.21967C10.3897 1.07902 10.1989 1 10 1C9.80109 1 9.61032 1.07902 9.46967 1.21967C9.32902 1.36032 9.25 1.55109 9.25 1.75V9.25H1.75C1.55109 9.25 1.36032 9.32902 1.21967 9.46967C1.07902 9.61032 1 9.80109 1 10C1 10.1989 1.07902 10.3897 1.21967 10.5303C1.36032 10.671 1.55109 10.75 1.75 10.75H9.25V18.25C9.25 18.4489 9.32902 18.6397 9.46967 18.7803C9.61032 18.921 9.80109 19 10 19C10.1989 19 10.3897 18.921 10.5303 18.7803C10.671 18.6397 10.75 18.4489 10.75 18.25V10.75H18.25C18.4489 10.75 18.6397 10.671 18.7803 10.5303C18.921 10.3897 19 10.1989 19 10C19 9.80109 18.921 9.61032 18.7803 9.46967C18.6397 9.32902 18.4489 9.25 18.25 9.25Z" fill="white" stroke="white"/>
</svg>
