<svg width="14" height="14" viewBox="0 0 14 14" fill="none" xmlns="http://www.w3.org/2000/svg">
<path d="M4.36426 5.45215H1.73926V2.82715" fill="#091535" fill-opacity="0.64"/>
<path d="M4.36426 5.45215H1.73926V2.82715" stroke="#091535" stroke-opacity="0.64" stroke-width="1.5" stroke-linecap="round" stroke-linejoin="round"/>
<path d="M3.59863 10.4016C4.27152 11.075 5.12902 11.5337 6.06266 11.7197C6.9963 11.9058 7.96413 11.8107 8.84373 11.4465C9.72333 11.0824 10.4752 10.4656 11.0041 9.67409C11.5331 8.8826 11.8155 7.95199 11.8155 7C11.8155 6.04801 11.5331 5.11741 11.0041 4.32591C10.4752 3.53442 9.72333 2.91759 8.84373 2.55346C7.96413 2.18932 6.9963 2.09425 6.06266 2.28026C5.12902 2.46627 4.27152 2.92501 3.59863 3.59844L1.73926 5.45235" stroke="#091535" stroke-opacity="0.64" stroke-width="1.5" stroke-linecap="round" stroke-linejoin="round"/>
</svg>
