<svg width="20" height="20" viewBox="0 0 20 20" fill="none" xmlns="http://www.w3.org/2000/svg">
<path d="M4.72632 17.9926L4.72618 17.9925C4.63897 17.943 4.56637 17.8714 4.51569 17.7848C4.46504 17.6984 4.43807 17.6001 4.4375 17.4998V3.75C4.4375 3.43506 4.56261 3.13301 4.78531 2.91031C5.00801 2.68761 5.31006 2.5625 5.625 2.5625H14.375C14.6899 2.5625 14.992 2.68761 15.2147 2.91031C15.4374 3.13301 15.5625 3.43506 15.5625 3.75L15.5625 17.4997C15.5625 17.4997 15.5625 17.4998 15.5625 17.4998C15.5619 17.6001 15.535 17.6984 15.4843 17.7848C15.4338 17.8712 15.3614 17.9427 15.2745 17.9922C15.1852 18.0399 15.0851 18.0637 14.9838 18.0612C14.8825 18.0588 14.7836 18.0301 14.6967 17.978C14.6966 17.9779 14.6964 17.9778 14.6963 17.9777L10.0332 15.0564L10 15.0356L9.96686 15.0564L5.29501 17.9782C5.295 17.9782 5.29499 17.9783 5.29498 17.9783C5.20656 18.0335 5.10437 18.0627 5.00011 18.0625L4.99893 18.0625C4.90343 18.0641 4.80925 18.04 4.72632 17.9926Z" fill="currentColor" stroke="white" stroke-width="0.125"/>
</svg>
