<svg width="17" height="18" viewBox="0 0 17 18" fill="none" xmlns="http://www.w3.org/2000/svg">
<path d="M15.4531 7.9058L2.28905 0.538616C2.06971 0.410707 1.81713 0.351289 1.56377 0.367994C1.31041 0.384699 1.06782 0.476765 0.867173 0.632366C0.662255 0.794044 0.513474 1.01616 0.441952 1.26719C0.37043 1.51822 0.379801 1.7854 0.468735 2.0308L2.66405 8.16362C2.68626 8.22476 2.72656 8.2777 2.77959 8.31538C2.83262 8.35306 2.89587 8.3737 2.96092 8.37455H8.60155C8.76373 8.37199 8.92085 8.43103 9.0412 8.53978C9.16154 8.64853 9.23616 8.79888 9.24998 8.96049C9.25533 9.04579 9.24312 9.13128 9.21411 9.21168C9.1851 9.29208 9.13991 9.36567 9.08133 9.42791C9.02275 9.49015 8.95203 9.53971 8.87354 9.57353C8.79505 9.60736 8.71045 9.62472 8.62498 9.62455H2.96092C2.89587 9.62541 2.83262 9.64605 2.77959 9.68373C2.72656 9.72141 2.68626 9.77434 2.66405 9.83549L0.468735 15.9683C0.402865 16.1572 0.383017 16.3592 0.410839 16.5573C0.438661 16.7554 0.513351 16.9441 0.628707 17.1076C0.744062 17.271 0.896754 17.4047 1.0741 17.4973C1.25145 17.5899 1.44834 17.6389 1.64842 17.6402C1.86133 17.6392 2.07069 17.5855 2.2578 17.4839L15.4531 10.0933C15.6464 9.98352 15.8072 9.82447 15.919 9.63234C16.0309 9.44021 16.0898 9.22187 16.0898 8.99955C16.0898 8.77724 16.0309 8.5589 15.919 8.36677C15.8072 8.17464 15.6464 8.01559 15.4531 7.9058Z" fill="#00B1A7"/>
</svg>
