<svg width="16" height="16" viewBox="0 0 16 16" fill="none" xmlns="http://www.w3.org/2000/svg">
<path d="M10.9375 3V3.0625H11H13.5C13.616 3.0625 13.7273 3.10859 13.8094 3.19064C13.8914 3.27269 13.9375 3.38397 13.9375 3.5C13.9375 3.61603 13.8914 3.72731 13.8094 3.80936C13.7273 3.89141 13.616 3.9375 13.5 3.9375H13H12.9375V4V13C12.9375 13.2486 12.8387 13.4871 12.6629 13.6629C12.4871 13.8387 12.2486 13.9375 12 13.9375H4C3.75136 13.9375 3.5129 13.8387 3.33709 13.6629C3.16127 13.4871 3.0625 13.2486 3.0625 13V4V3.9375H3H2.5C2.38397 3.9375 2.27269 3.89141 2.19064 3.80936C2.10859 3.72731 2.0625 3.61603 2.0625 3.5C2.0625 3.38397 2.10859 3.27269 2.19064 3.19064C2.27269 3.10859 2.38397 3.0625 2.5 3.0625H5H5.0625V3V2.50014C5.06411 2.11935 5.21609 1.75462 5.48535 1.48535C5.75461 1.21609 6.11935 1.06411 6.50013 1.0625H9.49987C9.88065 1.06411 10.2454 1.21609 10.5146 1.48535C10.7839 1.75459 10.9359 2.11928 10.9375 2.50003C10.9375 2.50011 10.9375 2.50018 10.9375 2.50026L10.9375 3ZM10 3.0625H10.0625V3V2.5C10.0625 2.35082 10.0032 2.20774 9.89775 2.10225C9.79226 1.99676 9.64918 1.9375 9.5 1.9375H6.5C6.35082 1.9375 6.20774 1.99676 6.10225 2.10225C5.99676 2.20774 5.9375 2.35082 5.9375 2.5V3V3.0625H6H10ZM6.89775 10.8977C7.00324 10.7923 7.0625 10.6492 7.0625 10.5V6.5C7.0625 6.35082 7.00324 6.20774 6.89775 6.10225C6.79226 5.99676 6.64918 5.9375 6.5 5.9375C6.35082 5.9375 6.20774 5.99676 6.10225 6.10225C5.99676 6.20774 5.9375 6.35082 5.9375 6.5V10.5C5.9375 10.6492 5.99676 10.7923 6.10225 10.8977C6.20774 11.0032 6.35082 11.0625 6.5 11.0625C6.64918 11.0625 6.79226 11.0032 6.89775 10.8977ZM9.89775 10.8977C10.0032 10.7923 10.0625 10.6492 10.0625 10.5V6.5C10.0625 6.35082 10.0032 6.20774 9.89775 6.10225C9.79226 5.99676 9.64918 5.9375 9.5 5.9375C9.35082 5.9375 9.20774 5.99676 9.10225 6.10225C8.99676 6.20774 8.9375 6.35082 8.9375 6.5V10.5C8.9375 10.6492 8.99676 10.7923 9.10225 10.8977C9.20774 11.0032 9.35082 11.0625 9.5 11.0625C9.64918 11.0625 9.79226 11.0032 9.89775 10.8977Z" fill="white" stroke="white" stroke-width="0.125"/>
</svg>
