<svg width="24" height="25" viewBox="0 0 24 25" fill="none" xmlns="http://www.w3.org/2000/svg">
<path d="M12 21.5C16.9706 21.5 21 17.4706 21 12.5C21 7.52944 16.9706 3.5 12 3.5C7.02944 3.5 3 7.52944 3 12.5C3 17.4706 7.02944 21.5 12 21.5Z" stroke="#111418" stroke-width="1.5" stroke-linecap="round" stroke-linejoin="round"/>
<path d="M12 15.5C14.0711 15.5 15.75 13.8211 15.75 11.75C15.75 9.67893 14.0711 8 12 8C9.92893 8 8.25 9.67893 8.25 11.75C8.25 13.8211 9.92893 15.5 12 15.5Z" stroke="#111418" stroke-width="1.5" stroke-linecap="round" stroke-linejoin="round"/>
<path d="M5.9812 19.1943C6.54549 18.0828 7.40654 17.1493 8.4689 16.4972C9.53126 15.8452 10.7534 15.5 12 15.5C13.2465 15.5 14.4686 15.8452 15.531 16.4972C16.5934 17.1493 17.4544 18.0828 18.0187 19.1943" stroke="#111418" stroke-width="1.5" stroke-linecap="round" stroke-linejoin="round"/>
</svg>
