<svg width="17" height="16" viewBox="0 0 17 16" fill="none" xmlns="http://www.w3.org/2000/svg">
<path d="M10.25 8C10.25 8.34612 10.1474 8.68446 9.95507 8.97225C9.76278 9.26004 9.48947 9.48434 9.1697 9.61679C8.84993 9.74924 8.49806 9.7839 8.15859 9.71638C7.81913 9.64885 7.50731 9.48218 7.26256 9.23744C7.01782 8.9927 6.85115 8.68088 6.78363 8.34141C6.7161 8.00194 6.75076 7.65008 6.88321 7.33031C7.01566 7.01054 7.23997 6.73722 7.52775 6.54493C7.81554 6.35264 8.15388 6.25 8.5 6.25C8.96362 6.25165 9.40779 6.43655 9.73562 6.76438C10.0635 7.09222 10.2484 7.53638 10.25 8ZM8.5 4.75C8.84612 4.75 9.18446 4.64737 9.47225 4.45507C9.76003 4.26278 9.98434 3.98947 10.1168 3.6697C10.2492 3.34993 10.2839 2.99806 10.2164 2.65859C10.1489 2.31913 9.98218 2.00731 9.73744 1.76256C9.4927 1.51782 9.18088 1.35115 8.84141 1.28363C8.50194 1.2161 8.15008 1.25076 7.8303 1.38321C7.51053 1.51566 7.23722 1.73997 7.04493 2.02775C6.85264 2.31554 6.75 2.65388 6.75 3C6.75165 3.46362 6.93655 3.90779 7.26438 4.23562C7.59222 4.56345 8.03638 4.74835 8.5 4.75ZM8.5 11.25C8.15388 11.25 7.81554 11.3526 7.52775 11.5449C7.23997 11.7372 7.01566 12.0105 6.88321 12.3303C6.75076 12.6501 6.7161 13.0019 6.78363 13.3414C6.85115 13.6809 7.01782 13.9927 7.26256 14.2374C7.50731 14.4822 7.81913 14.6489 8.15859 14.7164C8.49806 14.7839 8.84993 14.7492 9.1697 14.6168C9.48947 14.4843 9.76278 14.26 9.95507 13.9723C10.1474 13.6845 10.25 13.3461 10.25 13C10.2484 12.5364 10.0635 12.0922 9.73562 11.7644C9.40779 11.4366 8.96362 11.2516 8.5 11.25Z" fill="black"/>
</svg>
